<svg version="1.1" id="Layer_1" xmlns="http://www.w3.org/2000/svg" xmlns:xlink="http://www.w3.org/1999/xlink" x="0px" y="0px"
	 width="100%" viewBox="0 0 125 125" enable-background="new 0 0 125 125" xml:space="preserve">
<path fill="#02438A" opacity="1.000000" stroke="none" 
	d="
M73.900665,64.993286 
	C72.375679,68.969391 71.164536,73.107071 69.226799,76.870667 
	C67.665459,79.903183 64.914597,79.643555 63.561558,76.678055 
	C60.886375,70.814766 57.537411,64.867256 56.759850,58.667019 
	C56.238625,54.510788 59.663944,49.859634 61.757847,45.552826 
	C64.450798,51.787453 66.662224,57.917679 69.045479,63.980358 
	C69.267281,64.544571 70.578049,64.680710 71.697891,65.013916 
	C72.641945,65.005905 73.271309,64.999596 73.900665,64.993286 
z"/>
<path fill="#02438A" opacity="1.000000" stroke="none" 
	d="
M53.953598,66.978310 
	C52.531170,70.145676 51.318871,73.430626 49.629978,76.448891 
	C47.766918,79.778419 45.289978,79.846870 43.788868,76.512878 
	C41.274994,70.929535 38.195290,65.270882 37.395176,59.367252 
	C36.898979,55.706081 40.170364,51.534294 42.298782,47.417992 
	C44.610371,51.983727 46.373791,56.723175 48.171860,61.802444 
	C48.485615,62.753677 48.764725,63.365093 49.020626,63.984261 
	C48.997417,63.992016 49.039795,63.963612 49.088013,64.245461 
	C49.420341,65.015617 49.704445,65.503929 50.267113,66.078468 
	C50.734856,66.119926 50.924030,66.075142 51.385689,66.158539 
	C52.423313,66.517250 53.188457,66.747780 53.953598,66.978310 
z"/>
<path fill="#004389" opacity="1.000000" stroke="none" 
	d="
M82.209969,40.436359 
	C86.474617,38.834843 86.386803,41.564705 85.647247,43.871613 
	C84.385963,47.805912 82.748528,51.643147 80.949432,55.366703 
	C80.431496,56.438679 78.817162,56.980907 77.705505,57.766018 
	C77.236679,56.305706 76.020988,54.577427 76.431702,53.432682 
	C77.992432,49.082600 80.078911,44.921150 82.209969,40.436359 
z"/>
<path fill="#0B4389" opacity="1.000000" stroke="none" 
	d="
M54.117588,66.669266 
	C53.188457,66.747780 52.423313,66.517250 51.514847,65.832657 
	C48.681210,57.586845 45.990894,49.795090 43.300583,42.003334 
	C44.357952,41.811085 46.298767,41.325428 46.346306,41.468559 
	C49.090954,49.732716 51.678616,58.049011 54.117588,66.669266 
z"/>
<path fill="#07428D" opacity="1.000000" stroke="none" 
	d="
M73.936707,64.596725 
	C73.271309,64.999596 72.641945,65.005905 71.666100,64.614822 
	C68.574875,56.904671 65.830132,49.591919 63.085388,42.279171 
	C63.875427,40.002602 65.180031,39.409428 66.131905,41.948772 
	C68.891678,49.311115 71.378700,56.775700 73.936707,64.596725 
z"/>
<path fill="#E6C60F" opacity="1.000000" stroke="none" 
	d="
M43.139618,42.348106 
	C45.990894,49.795090 48.681210,57.586845 51.242363,65.704483 
	C50.924030,66.075142 50.734856,66.119926 50.234871,65.788879 
	C49.629311,64.929901 49.334553,64.446754 49.039795,63.963612 
	C49.039795,63.963612 48.997417,63.992016 49.016365,63.634754 
	C48.735947,62.672539 48.436581,62.067581 48.137215,61.462624 
	C46.373791,56.723175 44.610371,51.983727 42.509308,47.136566 
	C42.440659,45.583527 42.709660,44.138199 43.139618,42.348106 
z"/>
<path fill="#E5C510" opacity="1.000000" stroke="none" 
	d="
M62.929642,42.548016 
	C65.830132,49.591919 68.574875,56.904671 71.351402,64.616516 
	C70.578049,64.680710 69.267281,64.544571 69.045479,63.980358 
	C66.662224,57.917679 64.450798,51.787453 62.025490,45.342964 
	C62.163742,44.279095 62.468815,43.547977 62.929642,42.548016 
z"/>
<path fill="#0B4389" opacity="1.000000" stroke="none" 
	d="
M48.171860,61.802444 
	C48.436581,62.067581 48.735947,62.672539 49.039574,63.626999 
	C48.764725,63.365093 48.485615,62.753677 48.171860,61.802444 
z"/>
<path fill="#0B4389" opacity="1.000000" stroke="none" 
	d="
M49.088013,64.245461 
	C49.334553,64.446754 49.629311,64.929901 49.956310,65.702637 
	C49.704445,65.503929 49.420341,65.015617 49.088013,64.245461 
z"/>
</svg>